<svg width="16" height="16" viewBox="0 0 16 16" fill="none" xmlns="http://www.w3.org/2000/svg">
<path d="M3 0C5 0 11 0 13 0C15 0 16 1 16 3C16 5 16 11 16 13C16 15 15 16 13 16C11 16 5 16 3 16C1 16 -4.63592e-08 15 0 13C4.63592e-08 11 0 5 0 3C0 1 1 0 3 0Z" fill="url(#paint0_radial_1292_46)"/>
<path d="M4.47 11.35C4.47 11.15 4.51333 10.8 4.6 10.3C4.69333 9.8 4.75333 9.46 4.78 9.28L4.68 9.23C4.43333 9.55667 4.14333 9.81 3.81 9.99C3.47667 10.1633 3.14333 10.25 2.81 10.25C2.29667 10.25 1.86667 10.05 1.52 9.65C1.17333 9.24333 1 8.66 1 7.9C1 6.89333 1.28667 6.00667 1.86 5.24C2.14 4.86667 2.51 4.56667 2.97 4.34C3.43667 4.11333 3.92667 4 4.44 4C4.96 4 5.43 4.11333 5.85 4.34C6.09667 4.28 6.35 4.25 6.61 4.25C7.21 4.25 7.51 4.57667 7.51 5.23C7.51 5.33667 7.44 5.68333 7.3 6.27C6.89333 8.03 6.69 9.42667 6.69 10.46L7.19 11.26C6.53667 11.7467 5.92 11.99 5.34 11.99C5.03333 11.99 4.81 11.9333 4.67 11.82C4.53667 11.7067 4.47 11.55 4.47 11.35ZM3.83 8.75C4.26333 8.75 4.63333 8.53 4.94 8.09C5.09333 7.07667 5.26 6.04667 5.44 5C5.26 4.96 5.09667 4.94 4.95 4.94C4.50333 4.94 4.12 5.06667 3.8 5.32C3.19333 5.78 2.89 6.44 2.89 7.3C2.89 7.70667 2.97333 8.05 3.14 8.33C3.30667 8.61 3.53667 8.75 3.83 8.75Z" fill="#FFF59D"/>
<path d="M8.42305 7.62C8.42305 6.55333 8.78971 5.68333 9.52305 5.01C10.2564 4.33667 11.1797 4 12.293 4C12.8664 4 13.3197 4.11 13.653 4.33C13.9864 4.54333 14.153 4.81333 14.153 5.14C14.153 5.46667 14.0397 5.71667 13.813 5.89C13.593 6.06333 13.3497 6.15 13.083 6.15C12.823 6.15 12.583 6.08 12.363 5.94C12.1497 5.8 11.983 5.59667 11.863 5.33C11.443 5.50333 11.1097 5.81 10.863 6.25C10.623 6.69 10.503 7.13 10.503 7.57C10.503 8.01 10.5897 8.36667 10.763 8.64C10.9364 8.91333 11.163 9.05 11.443 9.05C11.723 9.05 11.9497 8.95667 12.123 8.77C12.303 8.58333 12.393 8.30667 12.393 7.94C13.3664 7.94 13.853 8.17 13.853 8.63C13.853 9.02333 13.6064 9.39333 13.113 9.74C12.6197 10.08 11.9697 10.25 11.163 10.25C10.3564 10.25 9.69638 10.01 9.18305 9.53C8.67638 9.04333 8.42305 8.40667 8.42305 7.62Z" fill="#FFF59D"/>
<defs>
<radialGradient id="paint0_radial_1292_46" cx="0" cy="0" r="1" gradientUnits="userSpaceOnUse" gradientTransform="translate(14 2) rotate(90) scale(25 25)">
<stop stop-color="#FBC02D"/>
<stop offset="0.0001" stop-color="#F38841"/>
<stop offset="0.0002" stop-color="#FBC02D" stop-opacity="0.880246"/>
<stop offset="1" stop-color="#FBC02D" stop-opacity="0.5"/>
</radialGradient>
</defs>
</svg>
